<svg xmlns="http://www.w3.org/2000/svg" width="13.274" height="13.274" viewBox="0 0 13.274 13.274">
  <g id="Arrow-2" transform="translate(-980.36 41.274) rotate(-90)">
    <path id="Path_129" data-name="Path 129" d="M34.637,993.635a1.015,1.015,0,0,0,.622-.245l5.732-5.43a.9.9,0,0,0,.03-1.284.891.891,0,0,0-1.274-.027l-4.2,3.978v-9.362a.905.905,0,1,0-1.81,0v9.362l-4.2-3.978a.894.894,0,0,0-1.277.027.905.905,0,0,0,.032,1.284l5.732,5.43a.882.882,0,0,0,.622.245Z" transform="translate(0 0)" fill="#fac112"/>
  </g>
</svg>
