<svg xmlns="http://www.w3.org/2000/svg" width="23.826" height="23.774" viewBox="0 0 23.826 23.774">
  <g id="Group_137" data-name="Group 137" transform="translate(-283.501 -181.181)">
    <g id="Group_117" data-name="Group 117" transform="translate(-3.827 -3.003)">
      <g id="Group_116" data-name="Group 116" transform="translate(301.591 195.005) rotate(-146)">
        <path id="Path_92" data-name="Path 92" d="M3.933,2.419A5.454,5.454,0,0,1,0,.782L.888,0,.444.392.886,0A4.256,4.256,0,0,0,3.933,1.237,4.321,4.321,0,0,0,6.988,0l.883.785A5.507,5.507,0,0,1,3.933,2.419" fill="#fac112"/>
      </g>
      <g id="search" transform="translate(287.328 184.184)">
        <path id="Path_94" data-name="Path 94" d="M9.732,20.066a10.028,10.028,0,1,1,9.984-10.031A10.028,10.028,0,0,1,9.732,20.066Zm0-17.138a7.1,7.1,0,1,0,7.058,7.107A7.1,7.1,0,0,0,9.732,2.928Z" transform="translate(0.341 -0.009)" fill="#222e46"/>
        <path id="Path_96" data-name="Path 96" d="M71.806,74,67.72,69.912l2.067-2.072,4.086,4.089Z" transform="translate(-50.047 -50.226)" fill="#fac112"/>
      </g>
    </g>
  </g>
</svg>
